# xmcd
#
# Track frame offsets:
# 150
# 11526
# 25007
# 39753
# 51450
# 63162
# 77849
# 89068
# 101666
# 115568
# 128732
# 142473
# 155751
# 169934
# 181357
# 194681
# 207714
# 220620
# 234585
# 248003
# 260402
# 273136
#
# Disc length: 3803 seconds
#
# Revision: 0
# Processed by: cddbd v1.5.2PL0 Copyright (c) Steve Scherf et al.
# Submitted via: Axialis_AX_CDPlayer 2.6
#
DISCID=3e0ed916
DTITLE=Mel Street - Mel Street/Country Soul
DYEAR=1900
DGENRE=
TTITLE0=Close Enough For Lonesome
TTITLE1=If This Is Having a Good Time
TTITLE2=Virginia, How Far Will You Go
TTITLE3=I'll Leave This World Loving You
TTITLE4=This Lady In My Bed
TTITLE5=Barbara, Don't Let Me Be The Last To Know
TTITLE6=Only Time Will Tell
TTITLE7=( I'm Just A)  Redneck In A Rock And Roll Bar
TTITLE8=This Has Got To Last
TTITLE9=Daylight Strangers, Midnight Friends
TTITLE10=My Friend The Jukebox
TTITLE11=Shady Rest
TTITLE12=Lola Mae
TTITLE13=The Fire Gets Higher
TTITLE14=She's No Honky Tonk Angel
TTITLE15=Never Been To Heaven ( But I Sure Been Close)
TTITLE16=Let The Phone Just Keep On Ringing
TTITLE17=Memory Eraser
TTITLE18=If I Had A Cheating Heart
TTITLE19=The Only Way She's Got To Go
TTITLE20=It Should've Been Me
TTITLE21=At The Club Alibi
EXTD=
EXTT0=
EXTT1=
EXTT2=
EXTT3=
EXTT4=
EXTT5=
EXTT6=
EXTT7=
EXTT8=
EXTT9=
EXTT10=
EXTT11=
EXTT12=
EXTT13=
EXTT14=
EXTT15=
EXTT16=
EXTT17=
EXTT18=
EXTT19=
EXTT20=
EXTT21=
PLAYORDER=
